<?xml version="1.0" encoding="iso-8859-1"?>
<!-- Generator: Adobe Illustrator 19.0.0, SVG Export Plug-In . SVG Version: 6.00 Build 0)  -->
<svg version="1.1" id="Layer_1" xmlns="http://www.w3.org/2000/svg" xmlns:xlink="http://www.w3.org/1999/xlink" x="0px" y="0px"
	 viewBox="0 0 512 512" style="enable-background:new 0 0 512 512;" xml:space="preserve">
<path style="fill:#FFE7E5;" d="M86.528,422.4c-35.294,0-64-28.706-64-64s28.706-64,64-64s64,28.706,64,64
	S121.813,422.4,86.528,422.4z"/>
<g>
	<polygon style="fill:#FF877F;" points="256,217.6 256,166.4 317.884,166.4 327.202,217.6 	"/>
	<polygon style="fill:#FF877F;" points="184.815,217.6 194.116,166.4 256,166.4 256,217.6 	"/>
</g>
<g>
	<path style="fill:#FFE7E5;" d="M256,140.8c-35.294,0-64-28.706-64-64s28.706-64,64-64s64,28.706,64,64S291.294,140.8,256,140.8z"/>
	<path style="fill:#FFE7E5;" d="M425.472,422.4c-35.294,0-64-28.706-64-64s28.706-64,64-64s64,28.706,64,64
		S460.766,422.4,425.472,422.4z"/>
</g>
<g>
	<polygon style="fill:#A0BF7C;" points="425.472,499.2 425.472,448 487.356,448 496.657,499.2 	"/>
	<polygon style="fill:#A0BF7C;" points="354.278,499.2 363.588,448 425.472,448 425.472,499.2 	"/>
</g>
<g>
	<polygon style="fill:#6FB0B6;" points="86.528,499.2 86.528,448 148.412,448 157.722,499.2 	"/>
	<polygon style="fill:#6FB0B6;" points="15.343,499.2 24.644,448 86.528,448 86.528,499.2 	"/>
</g>
<g>
	<path style="fill:#573A32;" d="M332.8,76.8C332.8,34.449,298.351,0,256,0s-76.8,34.449-76.8,76.8s34.449,76.8,76.8,76.8
		S332.8,119.151,332.8,76.8z M256,128c-28.279,0-51.2-22.921-51.2-51.2s22.921-51.2,51.2-51.2c28.279,0,51.2,22.921,51.2,51.2
		S284.279,128,256,128z"/>
	<path style="fill:#573A32;" d="M163.328,358.4c0-42.351-34.449-76.8-76.8-76.8s-76.8,34.449-76.8,76.8s34.449,76.8,76.8,76.8
		S163.328,400.751,163.328,358.4z M86.528,409.6c-28.279,0-51.2-22.921-51.2-51.2c0-28.279,22.921-51.2,51.2-51.2
		s51.2,22.921,51.2,51.2C137.728,386.679,114.807,409.6,86.528,409.6z"/>
	<path style="fill:#573A32;" d="M502.272,358.4c0-42.351-34.449-76.8-76.8-76.8s-76.8,34.449-76.8,76.8s34.449,76.8,76.8,76.8
		S502.272,400.751,502.272,358.4z M425.472,409.6c-28.279,0-51.2-22.921-51.2-51.2c0-28.279,22.921-51.2,51.2-51.2
		c28.279,0,51.2,22.921,51.2,51.2C476.672,386.679,453.751,409.6,425.472,409.6z"/>
	<path style="fill:#573A32;" d="M328.909,372.924L268.8,338.219V268.8c0-7.074-5.726-12.8-12.8-12.8c-7.074,0-12.8,5.726-12.8,12.8
		v69.419l-60.109,34.705c-6.127,3.524-8.226,11.349-4.685,17.476c2.372,4.096,6.673,6.4,11.102,6.4c2.176,0,4.378-0.546,6.391-1.724
		l60.1-34.705l60.109,34.705c2.014,1.178,4.215,1.724,6.391,1.724c4.429,0,8.721-2.304,11.102-6.4
		C337.135,384.273,335.036,376.448,328.909,372.924z"/>
	<path style="fill:#573A32;" d="M179.618,174.626L169.472,230.4h173.056l-10.138-55.774c-2.219-12.177-12.817-21.026-25.19-21.026
		H256h-51.2C192.427,153.6,181.828,162.449,179.618,174.626z M268.8,179.2h38.4l4.651,25.6H268.8V179.2z M243.2,204.8h-43.051
		l4.651-25.6h38.4V204.8z"/>
	<path style="fill:#573A32;" d="M137.728,435.2h-51.2h-51.2c-12.373,0-22.972,8.849-25.19,21.026L0,512h173.056l-10.138-55.774
		C160.7,444.049,150.101,435.2,137.728,435.2z M73.728,486.4H30.677l4.651-25.6h38.4C73.728,460.8,73.728,486.4,73.728,486.4z
		 M99.328,486.4v-25.6h38.4l4.659,25.6H99.328z"/>
	<path style="fill:#573A32;" d="M501.862,456.226c-2.219-12.177-12.817-21.026-25.19-21.026h-51.2h-51.2
		c-12.373,0-22.972,8.849-25.19,21.026L338.944,512H512L501.862,456.226z M412.672,486.4h-43.051l4.651-25.6h38.4V486.4z
		 M438.272,486.4v-25.6h38.4l4.659,25.6H438.272z"/>
</g>
<g>
</g>
<g>
</g>
<g>
</g>
<g>
</g>
<g>
</g>
<g>
</g>
<g>
</g>
<g>
</g>
<g>
</g>
<g>
</g>
<g>
</g>
<g>
</g>
<g>
</g>
<g>
</g>
<g>
</g>
</svg>
